<?xml version="1.0" encoding="UTF-8"?>
<!DOCTYPE svg PUBLIC "-//W3C//DTD SVG 1.1//EN" "http://www.w3.org/Graphics/SVG/1.1/DTD/svg11.dtd">
<svg xmlns="http://www.w3.org/2000/svg" version="1.1" width="880px" height="880px" style="shape-rendering:geometricPrecision; text-rendering:geometricPrecision; image-rendering:optimizeQuality; fill-rule:evenodd; clip-rule:evenodd" xmlns:xlink="http://www.w3.org/1999/xlink">
<g><path style="opacity:0.997" fill="#609926" d="M 520.5,211.5 C 520.167,261.838 520.5,312.171 521.5,362.5C 528.379,366.106 535.379,369.439 542.5,372.5C 543.5,318.837 543.833,265.171 543.5,211.5C 577.174,211.016 610.841,210.183 644.5,209C 711.854,206.066 779.187,203.066 846.5,200C 855.939,202.772 862.105,208.939 865,218.5C 869.911,234.614 872.411,251.114 872.5,268C 870.009,338.11 858.176,406.61 837,473.5C 821.348,525.132 801.015,574.799 776,622.5C 762.333,646.831 746.333,669.497 728,690.5C 712.416,707.081 693.916,719.248 672.5,727C 669.529,727.794 666.529,728.461 663.5,729C 573.833,729.667 484.167,729.667 394.5,729C 375.968,723.903 359.635,714.903 345.5,702C 304.895,664.222 273.895,619.722 252.5,568.5C 206.451,567.457 162.118,558.29 119.5,541C 58.9,512.715 22.7334,465.548 11,399.5C 3.11103,359.942 6.11103,321.275 20,283.5C 44.3216,233.547 84.1549,204.714 139.5,197C 146.151,196.289 152.818,195.789 159.5,195.5C 279.719,203.594 400.052,208.928 520.5,211.5 Z M 161.5,262.5 C 166.167,262.5 170.833,262.5 175.5,262.5C 180.928,317.737 191.095,372.07 206,425.5C 213.379,449.637 221.546,473.471 230.5,497C 192.538,494.679 157.538,483.346 125.5,463C 100.699,443.925 84.5319,419.091 77,388.5C 71.0649,366.964 70.3982,345.298 75,323.5C 84.284,291.917 105.117,272.75 137.5,266C 145.601,264.501 153.601,263.334 161.5,262.5 Z"/></g>
<g><path style="opacity:0.996" fill="#fefefd" d="M 520.5,211.5 C 528.167,211.5 535.833,211.5 543.5,211.5C 543.833,265.171 543.5,318.837 542.5,372.5C 535.379,369.439 528.379,366.106 521.5,362.5C 520.5,312.171 520.167,261.838 520.5,211.5 Z"/></g>
<g><path style="opacity:1" fill="#fefefe" d="M 464.5,354.5 C 472.781,353.829 480.781,354.995 488.5,358C 498.711,363.272 509.044,368.272 519.5,373C 520.022,373.561 520.355,374.228 520.5,375C 514.636,387.228 508.636,399.395 502.5,411.5C 484.222,414.594 476.055,425.261 478,443.5C 478.806,446.446 480.139,449.112 482,451.5C 482.667,452.5 482.667,453.5 482,454.5C 470.728,476.71 459.728,499.044 449,521.5C 426.325,526.85 419.658,540.183 429,561.5C 441.676,574.468 454.676,574.801 468,562.5C 475.635,551.542 475.302,540.876 467,530.5C 466.333,529.5 466.333,528.5 467,527.5C 477.939,505.956 488.605,484.29 499,462.5C 505.823,462.044 512.156,460.044 518,456.5C 531.332,462.082 544.165,468.582 556.5,476C 559.704,478.869 562.537,482.035 565,485.5C 565.097,494.125 563.43,502.458 560,510.5C 552.527,527.251 544.86,543.918 537,560.5C 525.032,561.469 516.699,567.469 512,578.5C 509.382,594.205 515.548,604.705 530.5,610C 552.621,610.265 562.121,599.431 559,577.5C 557.62,574.572 556.12,571.738 554.5,569C 565.642,545.901 575.809,522.401 585,498.5C 586.635,483.734 581.802,471.567 570.5,462C 556.519,453.176 541.852,445.676 526.5,439.5C 526.991,431.952 524.658,425.452 519.5,420C 525.361,407.11 531.861,394.61 539,382.5C 575.53,400.181 612.03,418.015 648.5,436C 664.326,446.966 668.326,461.299 660.5,479C 635.681,531.806 610.181,584.306 584,636.5C 573.458,654.014 558.625,659.181 539.5,652C 486.167,626 432.833,600 379.5,574C 362.981,562.762 358.814,547.929 367,529.5C 392.667,476.833 418.333,424.167 444,371.5C 448.699,363.092 455.532,357.426 464.5,354.5 Z"/></g>
</svg>
